# xmcd
#
# Track frame offsets:
#	150
#	17178
#	31140
#	44084
#	55681
#	69542
#	83636
#	99635
#	114134
#	126759
#
# Disc length: 1951 seconds
#
# Revision: 0
# Processed by: cddbd v1.4PL0 Copyright (c) Steve Scherf et al.
# Submitted via: dBpowerAMP V4.0
#
DISCID=7b079d0a
DTITLE=Jennifer Leigh Meyers - Try And Stop Her
DYEAR=2002
DGENRE=Country
TTITLE0=No End To Love
TTITLE1=Sidetracked
TTITLE2=River Of Yesterday
TTITLE3=Nothing Shows The Hurt
TTITLE4=Under The Rainbow
TTITLE5=Bouncing Back
TTITLE6=Love Like This
TTITLE7=Shape Up Heart
TTITLE8=You Wrote The Melody
TTITLE9=Try And Stop Her
EXTD=
EXTT0=
EXTT1=
EXTT2=
EXTT3=
EXTT4=
EXTT5=
EXTT6=
EXTT7=
EXTT8=
EXTT9=
PLAYORDER=
